<?xml version="1.0" encoding="utf-8"?>
<!-- Generator: Adobe Illustrator 17.0.0, SVG Export Plug-In . SVG Version: 6.00 Build 0)  -->
<!DOCTYPE svg PUBLIC "-//W3C//DTD SVG 1.1//EN" "http://www.w3.org/Graphics/SVG/1.1/DTD/svg11.dtd">
<svg version="1.1" id="Layer_1" xmlns="http://www.w3.org/2000/svg" xmlns:xlink="http://www.w3.org/1999/xlink" x="0px" y="0px"
	 width="220.1px" height="64.1px" viewBox="0 0 220.1 64.1" style="enable-background:new 0 0 220.1 64.1;" xml:space="preserve">
<style type="text/css">
	.st0{fill:#0C95B9;}
	.st1{fill:#FFFFFF;}
</style>
<g>
	<path class="st0" d="M37.5,34.2c-0.2-4.8-0.4-10.6-0.4-16.3H37c-1.2,5.1-2.9,10.7-4.4,15.4l-4.8,15.5h-7l-4.2-15.4
		c-1.3-4.7-2.7-10.3-3.6-15.5h-0.1c-0.2,5.4-0.4,11.5-0.7,16.5l-0.7,15.1H3L5.5,9.6h12l3.9,13.3c1.2,4.6,2.5,9.6,3.4,14.2H25
		c1.1-4.6,2.5-9.9,3.8-14.3L33,9.6h11.7l2.2,39.8h-8.8L37.5,34.2z"/>
	<path class="st0" d="M63.1,12.5c0,2.5-1.9,4.5-4.8,4.5c-2.8,0-4.7-2-4.7-4.5C53.6,9.9,55.5,8,58.4,8C61.2,8,63.1,9.9,63.1,12.5z
		 M53.9,49.4V20.5h9v28.9H53.9z"/>
	<path class="st0" d="M70,29.7c0-3.6-0.1-6.7-0.2-9.2h7.8l0.4,4h0.2c1.2-1.8,4.1-4.6,8.9-4.6c5.9,0,10.3,3.9,10.3,12.4v17.1h-9v-16
		c0-3.7-1.3-6.3-4.5-6.3c-2.5,0-4,1.7-4.5,3.4C79.1,31,79,31.9,79,32.7v16.6h-9V29.7z"/>
	<path class="st0" d="M131.8,40.1c0,3.8,0.1,6.8,0.2,9.3h-7.8l-0.4-4.1h-0.2c-1.1,1.8-3.8,4.7-9,4.7c-5.8,0-10.1-3.7-10.1-12.6V20.5
		h9V36c0,4.2,1.4,6.7,4.5,6.7c2.5,0,3.9-1.7,4.5-3.1c0.2-0.5,0.3-1.2,0.3-1.9V20.5h9V40.1z"/>
	<path class="st0" d="M138.9,41.5c1.7,1,5.1,2.2,7.7,2.2c2.7,0,3.8-0.9,3.8-2.4s-0.9-2.2-4.2-3.3c-6-2-8.3-5.3-8.2-8.7
		c0-5.4,4.6-9.4,11.7-9.4c3.4,0,6.4,0.8,8.1,1.7l-1.6,6.2c-1.3-0.7-3.8-1.7-6.3-1.7c-2.2,0-3.4,0.9-3.4,2.4c0,1.4,1.1,2.1,4.7,3.3
		c5.5,1.9,7.8,4.7,7.8,8.9c0,5.4-4.2,9.3-12.5,9.3c-3.8,0-7.1-0.8-9.3-2L138.9,41.5z"/>
	<path class="st1" d="M173.9,9.6v39.8h-9V9.6H173.9z"/>
	<path class="st1" d="M215.7,56.2c-5.7-1.7-10.4-3.4-15.7-5.6c-0.9-0.4-1.8-0.5-2.8-0.6c-9-0.6-17.3-7.2-17.3-20.2
		c0-11.9,7.6-20.9,19.4-20.9c12.2,0,18.8,9.2,18.8,20.1c0,9-4.2,15.4-9.4,17.8V47c3.1,0.9,6.5,1.6,9.6,2.2L215.7,56.2z M208.6,29.4
		c0-7.3-3.4-13.3-9.6-13.3s-9.7,6-9.7,13.5c-0.1,7.6,3.6,13.3,9.6,13.3C205.1,42.9,208.6,37.2,208.6,29.4z"/>
</g>
</svg>
